<?xml version="1.0" encoding="utf-8"?>
<!-- Generator: Adobe Illustrator 24.0.0, SVG Export Plug-In . SVG Version: 6.00 Build 0)  -->
<svg version="1.1" id="图层_1" xmlns="http://www.w3.org/2000/svg" xmlns:xlink="http://www.w3.org/1999/xlink" x="0px" y="0px"
	 viewBox="0 0 64 64" style="enable-background:new 0 0 64 64;" xml:space="preserve">
<style type="text/css">
	.st0{fill:url(#SVGID_1_);}
	.st1{fill:url(#SVGID_2_);}
	.st2{fill:url(#SVGID_3_);}
	.st3{fill:url(#SVGID_4_);}
	.st4{fill:#BFBFBF;}
	.st5{fill:#474747;}
	.st6{fill:#FFFFFF;}
	.st7{fill:#9D9D9D;}
	.st8{fill:url(#SVGID_5_);}
	.st9{fill:url(#SVGID_6_);}
	.st10{fill:url(#SVGID_7_);}
	.st11{fill:url(#SVGID_8_);}
	.st12{fill:url(#SVGID_9_);}
</style>
<g id="_x36_4_4_">
	<linearGradient id="SVGID_1_" gradientUnits="userSpaceOnUse" x1="11.9847" y1="12.2838" x2="51.5827" y2="51.8818">
		<stop  offset="0" style="stop-color:#2691FD"/>
		<stop  offset="1" style="stop-color:#35DCF6"/>
	</linearGradient>
	<circle class="st0" cx="31.8" cy="32.1" r="28"/>
	<g>
		<g>
			<radialGradient id="SVGID_2_" cx="20.7943" cy="9.7188" r="28.6746" gradientUnits="userSpaceOnUse">
				<stop  offset="0" style="stop-color:#BEBEBE"/>
				<stop  offset="1" style="stop-color:#9A9A9A"/>
			</radialGradient>
			<path class="st1" d="M7.8,8.1h48l-2.3,41.2H10.1L7.8,8.1z"/>
			<linearGradient id="SVGID_3_" gradientUnits="userSpaceOnUse" x1="41.2043" y1="28.3706" x2="22.3632" y2="-1.205">
				<stop  offset="0.2589" style="stop-color:#D1D1D1"/>
				<stop  offset="0.9455" style="stop-color:#E0E0E0"/>
			</linearGradient>
			<path class="st2" d="M7.8,8.1v11h6v-7L7.8,8.1z M55.8,8.1l-9,4v7h9V8.1z"/>
			<linearGradient id="SVGID_4_" gradientUnits="userSpaceOnUse" x1="11.8944" y1="11.9721" x2="51.6728" y2="51.7505">
				<stop  offset="0" style="stop-color:#FFFFFF"/>
				<stop  offset="0.3763" style="stop-color:#FCFCFC"/>
				<stop  offset="0.6327" style="stop-color:#F3F3F3"/>
				<stop  offset="0.8527" style="stop-color:#E4E4E4"/>
				<stop  offset="1" style="stop-color:#D5D5D5"/>
			</linearGradient>
			<path class="st3" d="M54.3,48.7l4.5-29.6h-54l4.4,29.5c5.1,6.9,13.3,11.5,22.6,11.5C41,60.1,49.2,55.6,54.3,48.7z"/>
			<path class="st4" d="M13.8,19.1v-7l-9,7H13.8z M46.8,12.1v7h12L46.8,12.1z"/>
			<path class="st5" d="M16.8,27.1c-1.1,0-2,0.9-2,2s0.9,2,2,2c1.1,0,2-0.9,2-2C18.8,28,17.9,27.1,16.8,27.1z M44.8,27.1
				c-1.1,0-2,0.9-2,2s0.9,2,2,2c1.1,0,2-0.9,2-2C46.8,28,45.9,27.1,44.8,27.1z"/>
			<path class="st6" d="M31,46.2c-8.1,0-14.6-7.1-14.6-15.9c0-0.6,0.4-1.1,1-1.1s1,0.5,1,1.1C18.4,37.9,24,44,31,44
				s12.6-6.2,12.6-13.7c0-0.6,0.4-1.1,1-1.1s1,0.5,1,1.1C45.5,39.1,39,46.2,31,46.2z"/>
			<path class="st7" d="M31,44.6c-8.1,0-14.6-6.6-14.6-14.8c0-0.6,0.4-1,1-1s1,0.4,1,1c0,7,5.6,12.7,12.6,12.7s12.6-5.7,12.6-12.7
				c0-0.6,0.4-1,1-1s1,0.4,1,1C45.5,38,39,44.6,31,44.6z"/>
		</g>
		<g>
			<linearGradient id="SVGID_5_" gradientUnits="userSpaceOnUse" x1="12.7625" y1="55.4135" x2="12.7625" y2="46.3886">
				<stop  offset="0" style="stop-color:#FF7955"/>
				<stop  offset="1" style="stop-color:#FF9377"/>
			</linearGradient>
			<path class="st8" d="M9.2,48.6c2,2.7,4.4,5,7.1,6.8v-9c-2.9,0.2-5.4,1-7.2,1.8L9.2,48.6z"/>
			<linearGradient id="SVGID_6_" gradientUnits="userSpaceOnUse" x1="51.2709" y1="55.4154" x2="51.2709" y2="40.2539">
				<stop  offset="0" style="stop-color:#9D3CFA"/>
				<stop  offset="1" style="stop-color:#C489FC"/>
			</linearGradient>
			<path class="st9" d="M54.3,48.7l1-8.4c-1.5,0.7-3.1,1.5-4.7,2.6c-1.2,0.9-2.3,1.7-3.4,2.5v10.1C50,53.6,52.4,51.3,54.3,48.7z"/>
			<linearGradient id="SVGID_7_" gradientUnits="userSpaceOnUse" x1="21.498" y1="59.5578" x2="21.498" y2="46.3158">
				<stop  offset="0" style="stop-color:#FFA437"/>
				<stop  offset="1" style="stop-color:#FFB65F"/>
			</linearGradient>
			<path class="st10" d="M16.4,46.4v9c3.1,2,6.5,3.4,10.3,4.1V48.1c-2.7-0.9-5.5-1.8-8.6-1.8C17.5,46.3,16.9,46.3,16.4,46.4z"/>
			<linearGradient id="SVGID_8_" gradientUnits="userSpaceOnUse" x1="31.7837" y1="60.0828" x2="31.7837" y2="48.1044">
				<stop  offset="0" style="stop-color:#81CE5B"/>
				<stop  offset="1" style="stop-color:#B3E19C"/>
			</linearGradient>
			<path class="st11" d="M26.6,48.1v11.5c1.7,0.3,3.4,0.5,5.1,0.5s3.5-0.2,5.1-0.5v-9.8C33.2,50.3,29.9,49.2,26.6,48.1z"/>
			<linearGradient id="SVGID_9_" gradientUnits="userSpaceOnUse" x1="42.0694" y1="59.558" x2="42.0694" y2="45.3599">
				<stop  offset="0" style="stop-color:#1DB5F3"/>
				<stop  offset="1" style="stop-color:#4AC4F5"/>
			</linearGradient>
			<path class="st12" d="M36.9,59.6c3.7-0.7,7.2-2.1,10.3-4.1V45.4c-3,2.1-5.9,3.8-10.3,4.4V59.6z"/>
		</g>
	</g>
</g>
</svg>
