<?xml version="1.0" encoding="iso-8859-1"?>
<!-- Generator: Adobe Illustrator 21.0.0, SVG Export Plug-In . SVG Version: 6.00 Build 0)  -->
<svg version="1.0" id="&#x56FE;&#x5C42;_1" xmlns="http://www.w3.org/2000/svg" xmlns:xlink="http://www.w3.org/1999/xlink" x="0px"
	 y="0px" width="48px" height="48px" viewBox="0 0 48 48" enable-background="new 0 0 48 48" xml:space="preserve">
<g>
	<g id="&#x5E95;&#x677F;_&#x590D;&#x5236;">
		<g id="&#x84DD;&#x7EA2;&#x8272;">
			<g id="_48">
				<g opacity="0.2">
					<path d="M24,45.5c-7.3,0-13.5-1.8-16.6-4.9c-6.7-6.7-6.7-26.5,0-33.1c3.1-3.1,9.3-4.9,16.6-4.9s13.5,1.8,16.6,4.9
						c6.7,6.7,6.7,26.5,0,33.1C37.5,43.7,31.3,45.5,24,45.5z"/>
				</g>
				<g opacity="8.000000e-02">
					<path d="M25,47.5c-7.5,0-14-2-17.3-5.2c-7.1-7.1-7.1-27.4,0-34.5C11,4.5,17.5,2.5,25,2.5s14,2,17.3,5.2
						c7.1,7.1,7.1,27.4,0,34.5C39,45.5,32.5,47.5,25,47.5z"/>
				</g>
				<g opacity="0.1">
					<path d="M25,46.5c-7.3,0-13.5-1.8-16.6-4.9c-6.7-6.7-6.7-26.5,0-33.1c3.1-3.1,9.3-4.9,16.6-4.9s13.5,1.8,16.6,4.9
						c6.7,6.7,6.7,26.5,0,33.1C38.5,44.7,32.3,46.5,25,46.5z"/>
				</g>
				<g id="_48-2">
					
						<linearGradient id="SVGID_1_" gradientUnits="userSpaceOnUse" x1="24" y1="4248.4448" x2="24" y2="4207.4575" gradientTransform="matrix(1 0 0 1 0 -4203.9702)">
						<stop  offset="0" style="stop-color:#FFB785"/>
						<stop  offset="0.53" style="stop-color:#89BED4"/>
						<stop  offset="1" style="stop-color:#35BAF6"/>
					</linearGradient>
					<path fill="url(#SVGID_1_)" d="M39.9,39.9c-6.2,6.1-25.5,6.1-31.7,0S2,14.3,8.1,8.1s25.5-6.1,31.7,0S46,33.7,39.9,39.9z"/>
				</g>
				
					<linearGradient id="SVGID_2_" gradientUnits="userSpaceOnUse" x1="24" y1="4246.4702" x2="24" y2="4209.4702" gradientTransform="matrix(1 0 0 1 0 -4203.9702)">
					<stop  offset="0" style="stop-color:#FFA565"/>
					<stop  offset="0.53" style="stop-color:#7FB0C4"/>
					<stop  offset="1" style="stop-color:#03A9F4"/>
				</linearGradient>
				<path fill="url(#SVGID_2_)" d="M24,42.5c-6.3,0-12-1.6-14.4-4.1C4.2,33,4.2,15,9.6,9.6C12,7.1,17.7,5.5,24,5.5s12,1.6,14.4,4.1
					c5.4,5.4,5.4,23.5,0,28.9C36,40.9,30.3,42.5,24,42.5z"/>
			</g>
		</g>
	</g>
	<path opacity="0.2" enable-background="new    " d="M37,39H11V13h26V39z"/>
	
		<linearGradient id="SVGID_3_" gradientUnits="userSpaceOnUse" x1="11" y1="4228.3198" x2="37" y2="4228.3198" gradientTransform="matrix(1 0 0 1 0 -4203.9702)">
		<stop  offset="0" style="stop-color:#F2F2F2"/>
		<stop  offset="8.000000e-02" style="stop-color:#F8F8F8"/>
		<stop  offset="0.25" style="stop-color:#FFFFFF"/>
		<stop  offset="0.5" style="stop-color:#FFFFFF"/>
		<stop  offset="0.75" style="stop-color:#FFFFFF"/>
		<stop  offset="1" style="stop-color:#F2F2F2"/>
	</linearGradient>
	<rect x="11" y="11.7" fill="url(#SVGID_3_)" width="26" height="25.3"/>
	<g>
		<g id="&#x9E92;&#x9E9F;&#x8F6F;&#x4EF6;&#x4E2D;&#x5FC3;">
			<g>
				<defs>
					<path id="SVGID_4_" d="M11,26.2c1.8-2,4.6-2.9,7.2-2.3c5.8,1.7,10.4,0.8,13.9-2.4c2.6-2.4,4.1-2.8,4.9-2.7c0,2.5,0,12.8,0,13.6
						V37H11C11,37,11,29.1,11,26.2z"/>
				</defs>
				<clipPath id="SVGID_5_">
					<use xlink:href="#SVGID_4_"  overflow="visible"/>
				</clipPath>
				<g clip-path="url(#SVGID_5_)">
					<rect x="11" y="16.1" fill="#FF7955" width="6" height="20.9"/>
					<rect x="17" y="16.1" fill="#FFA537" width="5" height="20.9"/>
					<rect x="22" y="16.1" fill="#82CF5B" width="4" height="20.9"/>
					<rect x="26" y="16.1" fill="#1DB6F4" width="5" height="20.9"/>
					<rect x="31" y="16.1" fill="#9E3CFB" width="6" height="20.9"/>
					<rect x="11" y="16.1" opacity="0.1" fill="#222222" enable-background="new    " width="26" height="20.9"/>
					<rect x="-2" y="35.6" opacity="0.3" fill="#222222" enable-background="new    " width="52" height="1.4"/>
				</g>
			</g>
			<g>
				<defs>
					<path id="SVGID_6_" d="M11,26.2c1.8-2,4.6-2.9,7.2-2.3c5.8,1.7,10.4,0.8,13.9-2.4c2.6-2.4,4.1-2.8,4.9-2.7c0,2.5,0,12.8,0,13.6
						V37H11C11,37,11,29.1,11,26.2z"/>
				</defs>
				<clipPath id="SVGID_7_">
					<use xlink:href="#SVGID_6_"  overflow="visible"/>
				</clipPath>
				<g opacity="0.4" clip-path="url(#SVGID_7_)">
					<path fill="#424242" d="M25.8,34.1c-0.4,0-0.7-0.1-1.1-0.2c-0.6-0.2-1-0.7-1.2-1.3c-0.1-0.3-0.1-0.7-0.1-1v-3.7h1.3v3.7
						c0,0.2,0,0.4,0.1,0.6c0,0.2,0.1,0.3,0.2,0.4c0.1,0.1,0.2,0.2,0.3,0.2c0.1,0,0.3,0.1,0.4,0.1c0.3,0,0.6-0.1,0.8-0.3
						c0.2-0.3,0.3-0.6,0.3-1v-3.7h1.3v3.8c0,0.3,0,0.7-0.1,1s-0.2,0.5-0.4,0.8c-0.2,0.2-0.5,0.4-0.8,0.5
						C26.6,34.1,26.2,34.1,25.8,34.1z"/>
					<path fill="#424242" d="M33,34c-0.1-0.2-0.3-0.4-0.4-0.6s-0.3-0.5-0.5-0.7s-0.4-0.5-0.6-0.7c-0.2-0.2-0.4-0.4-0.6-0.6V34h-1.3
						v-6.1h1.3v2.3c0.3-0.4,0.7-0.8,1-1.2l1-1.1h1.6c-0.4,0.5-0.8,1-1.2,1.4c-0.4,0.5-0.8,0.9-1.3,1.4c0.5,0.4,1,0.9,1.4,1.4
						c0.5,0.6,0.9,1.2,1.3,1.8H33V34z"/>
				</g>
			</g>
			<g>
				<defs>
					<path id="SVGID_8_" d="M11,26.2c1.8-2,4.6-2.9,7.2-2.3c5.8,1.7,10.4,0.8,13.9-2.4c2.6-2.4,4.1-2.8,4.9-2.7c0,2.5,0,12.8,0,13.6
						V37H11C11,37,11,29.1,11,26.2z"/>
				</defs>
				<clipPath id="SVGID_9_">
					<use xlink:href="#SVGID_8_"  overflow="visible"/>
				</clipPath>
				<path clip-path="url(#SVGID_9_)" fill="#FFFFFF" d="M25.8,33.9c-0.4,0-0.7-0.1-1.1-0.2c-0.6-0.2-1-0.7-1.2-1.3
					c-0.1-0.3-0.1-0.7-0.1-1v-3.8h1.3v3.7c0,0.2,0,0.4,0.1,0.6c0,0.2,0.1,0.3,0.2,0.4s0.2,0.2,0.3,0.2c0.1,0,0.3,0.1,0.4,0.1
					c0.3,0,0.6-0.1,0.8-0.3c0.2-0.3,0.3-0.6,0.3-1v-3.7h1.3v3.8c0,0.3,0,0.7-0.1,1s-0.2,0.5-0.4,0.8c-0.2,0.2-0.5,0.4-0.8,0.5
					C26.6,33.9,26.2,33.9,25.8,33.9z"/>
			</g>
			<g>
				<defs>
					<path id="SVGID_10_" d="M11,26.2c1.8-2,4.6-2.9,7.2-2.3c5.8,1.7,10.4,0.8,13.9-2.4c2.6-2.4,4.1-2.8,4.9-2.7
						c0,2.5,0,12.8,0,13.6V37H11C11,37,11,29.1,11,26.2z"/>
				</defs>
				<clipPath id="SVGID_11_">
					<use xlink:href="#SVGID_10_"  overflow="visible"/>
				</clipPath>
				<path clip-path="url(#SVGID_11_)" fill="#FFFFFF" d="M33,33.8c-0.1-0.2-0.3-0.4-0.4-0.6s-0.4-0.5-0.6-0.7
					c-0.2-0.2-0.4-0.5-0.6-0.7s-0.4-0.4-0.6-0.6v2.6h-1.3v-6.1h1.3V30c0.3-0.4,0.7-0.8,1-1.2l1-1.1h1.6c-0.4,0.5-0.8,1-1.2,1.4
					s-0.8,0.9-1.3,1.4c0.5,0.4,1,0.9,1.4,1.4c0.5,0.6,0.9,1.2,1.3,1.8H33V33.8z"/>
			</g>
		</g>
		<g id="_48-3">
			<g opacity="0.6" enable-background="new    ">
				<g>
					<defs>
						<rect id="SVGID_12_" x="16.1" y="13.9" width="15.9" height="11.6"/>
					</defs>
					<clipPath id="SVGID_13_">
						<use xlink:href="#SVGID_12_"  overflow="visible"/>
					</clipPath>
					<g clip-path="url(#SVGID_13_)">
						<path opacity="0.4" enable-background="new    " d="M24.1,23.3c-3.5,0-6.4-4-6.4-8.9s2.9-8.9,6.4-8.9s6.4,4,6.4,8.9
							S27.7,23.3,24.1,23.3z M29.9,14.4c0-4.4-2.6-7.9-5.8-7.9s-5.8,3.5-5.8,7.9s2.6,7.9,5.8,7.9S29.9,18.8,29.9,14.4z"/>
					</g>
				</g>
			</g>
			<path fill="#C6D4DB" d="M30.7,14.1c0,0.4-0.3,0.7-0.7,0.7s-0.7-0.3-0.7-0.7s0.3-0.7,0.7-0.7l0,0C30.4,13.4,30.7,13.7,30.7,14.1
				L30.7,14.1z M29.9,13.7c-0.2,0-0.4,0.2-0.4,0.5c0,0.2,0.2,0.4,0.5,0.4c0.2,0,0.4-0.2,0.4-0.4C30.4,13.9,30.2,13.7,29.9,13.7z"/>
			<path fill="#C6D4DB" d="M18.7,14.1c0,0.4-0.3,0.7-0.7,0.7c-0.4,0-0.7-0.3-0.7-0.7s0.3-0.7,0.7-0.7l0,0
				C18.4,13.4,18.7,13.7,18.7,14.1z M18,13.7c-0.2,0-0.4,0.2-0.4,0.5c0,0.2,0.2,0.4,0.5,0.4c0.2,0,0.4-0.2,0.4-0.4
				C18.5,13.9,18.2,13.7,18,13.7L18,13.7z"/>
			<g>
				<g>
					<defs>
						<rect id="SVGID_14_" x="15.3" y="13.9" width="16.6" height="10.8"/>
					</defs>
					<clipPath id="SVGID_15_">
						<use xlink:href="#SVGID_14_"  overflow="visible"/>
					</clipPath>
					<g clip-path="url(#SVGID_15_)">
						
							<radialGradient id="SVGID_16_" cx="753.2319" cy="4712.0298" r="9.79" gradientTransform="matrix(0.79 0 0 0.8 -571.1099 -3754.9663)" gradientUnits="userSpaceOnUse">
							<stop  offset="0" style="stop-color:#D2E5F5"/>
							<stop  offset="7.000000e-02" style="stop-color:#C9E2F4"/>
							<stop  offset="0.19" style="stop-color:#AFDBF1"/>
							<stop  offset="0.34" style="stop-color:#86D0EC"/>
							<stop  offset="0.52" style="stop-color:#4CBFE5"/>
							<stop  offset="0.72" style="stop-color:#03ABDC"/>
							<stop  offset="0.73" style="stop-color:#00AADC"/>
							<stop  offset="0.77" style="stop-color:#0087C7"/>
							<stop  offset="0.99" style="stop-color:#006EA5"/>
						</radialGradient>
						<path fill="url(#SVGID_16_)" d="M24,22.6c-3.6,0-6.5-3.6-6.5-8s2.9-8,6.5-8s6.5,3.6,6.5,8S27.5,22.6,24,22.6z M29.6,14.6
							c0-3.8-2.5-6.9-5.6-6.9s-5.6,3.1-5.6,6.9s2.5,7,5.6,7S29.6,18.5,29.6,14.6L29.6,14.6z"/>
					</g>
				</g>
				<g>
					<defs>
						<rect id="SVGID_17_" x="15.3" y="13.9" width="16.6" height="10.8"/>
					</defs>
					<clipPath id="SVGID_18_">
						<use xlink:href="#SVGID_17_"  overflow="visible"/>
					</clipPath>
					<ellipse clip-path="url(#SVGID_18_)" fill="#0083C5" cx="29.9" cy="14.2" rx="0.4" ry="0.4"/>
				</g>
				<g>
					<defs>
						<rect id="SVGID_19_" x="15.3" y="13.9" width="16.6" height="10.8"/>
					</defs>
					<clipPath id="SVGID_20_">
						<use xlink:href="#SVGID_19_"  overflow="visible"/>
					</clipPath>
					<ellipse clip-path="url(#SVGID_20_)" fill="#0083C5" cx="18" cy="14.2" rx="0.4" ry="0.4"/>
				</g>
			</g>
			<rect x="11" y="11" fill="#CCCCCC" width="26" height="1"/>
		</g>
	</g>
</g>
</svg>
